<svg id="Layer_5" enable-background="new 0 0 64 64" height="512" viewBox="0 0 64 64" width="512" xmlns="http://www.w3.org/2000/svg"><g><g><g><path d="m36 56v2c0 2.21-1.79 4-4 4-1.1 0-2.1-.45-2.83-1.17-.72-.73-1.17-1.73-1.17-2.83v-2z" fill="#aab2bd"/></g><g><path d="m36 52c1.1 0 2 .9 2 2 0 .55-.22 1.05-.59 1.41-.36.37-.86.59-1.41.59h-8c-1.1 0-2-.9-2-2 0-.55.22-1.05.59-1.41.36-.37.86-.59 1.41-.59z" fill="#ccd1d9"/></g><g><path d="m36 52h-8-2c-1.1 0-2-.9-2-2 0-.55.22-1.05.59-1.41.36-.37.86-.59 1.41-.59h12c1.1 0 2 .9 2 2 0 .55-.22 1.05-.59 1.41-.36.37-.86.59-1.41.59z" fill="#ccd1d9"/></g><g><path d="m49 28c0 6.5-3.65 12.14-9 15v1c.55 0 1.05.22 1.41.59.37.36.59.86.59 1.41 0 1.1-.9 2-2 2h-2-12-2c-.55 0-1.05-.22-1.41-.59-.37-.36-.59-.86-.59-1.41s.22-1.05.59-1.41c.36-.37.86-.59 1.41-.59v-1c-2.97-1.59-5.41-4.03-7-7-1.28-2.38-2-5.11-2-8 0-.71.04-1.42.13-2.14.94-7.7 7.2-13.89 14.91-14.75 6.51-.73 12.38 2.22 15.81 7.04 1.98 2.78 3.15 6.18 3.15 9.85z" fill="#ffeaa7"/></g><g><path d="m44 25v6l-1.6.57c-.15.43-.33.85-.53 1.26l.74 1.53-4.25 4.25-1.53-.74c-.41.2-.83.38-1.26.53l-.57 1.6h-6l-.57-1.6c-.43-.15-.85-.33-1.26-.53l-1.53.74-4.25-4.25.74-1.53c-.2-.41-.38-.83-.53-1.26l-1.6-.57v-6l1.6-.57c.15-.43.33-.85.53-1.26l-.74-1.53 4.25-4.25 1.53.74c.41-.2.83-.38 1.26-.53l.57-1.6h6l.57 1.6c.43.15.85.33 1.26.53l1.53-.74 4.25 4.25-.74 1.53c.2.41.38.83.53 1.26zm-5 3c0-3.87-3.13-7-7-7s-7 3.13-7 7 3.13 7 7 7 7-3.13 7-7z" fill="#ffc729"/></g><g><path d="m32 21c3.87 0 7 3.13 7 7s-3.13 7-7 7-7-3.13-7-7 3.13-7 7-7zm3 7c0-1.66-1.34-3-3-3s-3 1.34-3 3 1.34 3 3 3 3-1.34 3-3z" fill="#fcd770"/></g><g><path d="m62 2v12h-4v-10-2z" fill="#b4dd7f"/></g><g><path d="m54 6v8h-2-2v-8z" fill="#b4dd7f"/></g><g><path d="m58 4v10h-4v-8-2z" fill="#b4dd7f"/></g><g><path d="m20 52v8c0 1.1-.9 2-2 2h-14c-1.1 0-2-.9-2-2v-8c0-1.1.9-2 2-2h5 4l1.66-3.32c.21-.42.64-.68 1.1-.68.69 0 1.24.55 1.24 1.24v2.76h1c1.1 0 2 .9 2 2z" fill="#b4dd7f"/></g><g><circle cx="10" cy="10" fill="#ff826e" r="8"/></g><g><circle cx="54" cy="54" fill="#ff826e" r="8"/></g></g><g><path d="m50.707 54.293-1.414 1.414 2.707 2.707 6.707-6.707-1.414-1.414-5.293 5.293z"/><path d="m13.293 6.293-5.293 5.293-1.293-1.293-1.414 1.414 2.707 2.707 6.707-6.707z"/><path d="m32 20c-4.411 0-8 3.589-8 8s3.589 8 8 8 8-3.589 8-8-3.589-8-8-8zm0 14c-3.309 0-6-2.691-6-6s2.691-6 6-6 6 2.691 6 6-2.691 6-6 6z"/><path d="m32 24c-2.206 0-4 1.794-4 4s1.794 4 4 4 4-1.794 4-4-1.794-4-4-4zm0 6c-1.103 0-2-.897-2-2s.897-2 2-2 2 .897 2 2-.897 2-2 2z"/><path d="m42.978 23.177.836-1.748-5.242-5.244-1.749.836c-.155-.069-.313-.134-.471-.196l-.644-1.825h-7.416l-.644 1.826c-.158.062-.315.127-.471.196l-1.749-.836-5.242 5.244.836 1.748c-.069.157-.135.314-.196.471l-1.826.643v7.415l1.826.645c.062.157.127.314.196.471l-.836 1.749 5.242 5.242 1.749-.836c.156.069.313.135.471.196l.644 1.826h7.416l.644-1.826c.157-.062.314-.127.471-.196l1.749.836 5.242-5.242-.836-1.749c.069-.157.135-.314.196-.471l1.826-.644v-7.415l-1.826-.645c-.062-.157-.127-.314-.196-.471zm.022 7.115-1.393.491-.156.458c-.13.38-.29.765-.477 1.146l-.214.435.639 1.334-3.242 3.242-1.335-.639-.436.214c-.378.186-.763.347-1.145.477l-.459.156-.49 1.394h-4.584l-.491-1.393-.459-.156c-.382-.13-.767-.291-1.145-.477l-.436-.214-1.335.639-3.242-3.242.639-1.334-.214-.435c-.187-.381-.347-.766-.477-1.146l-.156-.458-1.392-.492v-4.585l1.393-.491.156-.458c.13-.38.29-.765.477-1.146l.214-.435-.639-1.334 3.242-3.242 1.335.638.436-.214c.375-.185.761-.345 1.146-.477l.458-.157.49-1.391h4.584l.491 1.392.458.157c.385.132.771.292 1.146.477l.436.214 1.335-.638 3.242 3.242-.639 1.334.214.435c.187.381.347.766.477 1.146l.156.458 1.392.491z"/><path d="m5 53h12v2h-12z"/><path d="m15 57h2v2h-2z"/><path d="m5 57h8v2h-8z"/><path d="m50.414 15h1.586 11v-14h-6v2h-4v2h-4v8.586l-3.064 3.063c-.595-.731-1.23-1.434-1.941-2.07-3.867-3.459-8.857-5.05-14.065-4.463-8.155.912-14.797 7.482-15.791 15.623-.052.422-.086.842-.109 1.261h-2.03c-.552 0-1-.449-1-1v-7.059c4.493-.5 8-4.317 8-8.941 0-4.962-4.037-9-9-9s-9 4.038-9 9c0 4.624 3.507 8.442 8 8.941v7.059c0 1.654 1.346 3 3 3h2.04c.115 2.094.585 4.119 1.376 6h-4.416c-1.654 0-3 1.346-3 3v11h-4c-1.654 0-3 1.346-3 3v8c0 1.654 1.346 3 3 3h14c1.654 0 3-1.346 3-3v-8c0-1.654-1.346-3-3-3v-1.764c0-1.233-1.003-2.236-2.236-2.236-.852 0-1.617.474-2 1.236l-1.382 2.764h-2.382v-11c0-.552.448-1 1-1h5.4c1.471 2.551 3.576 4.744 6.198 6.348-.95.504-1.598 1.504-1.598 2.652 0 1.383.945 2.539 2.22 2.884-.139.346-.22.721-.22 1.116 0 1.383.945 2.539 2.22 2.884-.139.346-.22.721-.22 1.116 0 1.302.839 2.402 2 2.816v1.184c0 2.757 2.243 5 5 5s5-2.243 5-5v-1.184c1.161-.414 2-1.514 2-2.816 0-.395-.081-.77-.22-1.116 1.275-.346 2.22-1.501 2.22-2.884 0-.395-.081-.77-.22-1.116 1.275-.346 2.22-1.501 2.22-2.884 0-1.148-.648-2.148-1.6-2.652 5.047-3.093 8.241-8.445 8.567-14.348h2.033c.552 0 1 .449 1 1v15.059c-4.493.499-8 4.316-8 8.941 0 4.963 4.037 9 9 9s9-4.037 9-9c0-4.625-3.507-8.442-8-8.941v-15.059c0-1.654-1.346-3-3-3h-2.053c-.175-3.119-1.156-6.113-2.822-8.711zm8.586-12h2v10h-2zm-2 2v8h-2v-8zm-6 2h2v6h-1-1zm-48 3c0-3.86 3.141-7 7-7s7 3.14 7 7-3.141 7-7 7-7-3.14-7-7zm10.618 41 1.934-3.868c.1-.198.448-.115.448.104v3.764h2c.552 0 1 .448 1 1v8c0 .552-.448 1-1 1h-14c-.552 0-1-.448-1-1v-8c0-.552.448-1 1-1zm47.382 3c0 3.859-3.141 7-7 7s-7-3.141-7-7 3.141-7 7-7 7 3.141 7 7zm-29 7c-1.654 0-3-1.346-3-3v-1h6v1c0 1.654-1.346 3-3 3zm4-6h-8c-.552 0-1-.448-1-1s.448-1 1-1h8c.552 0 1 .448 1 1s-.448 1-1 1zm2-4h-2-8-2c-.552 0-1-.448-1-1s.448-1 1-1h12c.552 0 1 .448 1 1s-.448 1-1 1zm1.528-8.884-.528.282v2.602h1c.552 0 1 .448 1 1s-.448 1-1 1h-2-12-2c-.552 0-1-.448-1-1s.448-1 1-1h1v-2.602l-.528-.282c-5.885-3.146-9.161-9.479-8.349-16.135.884-7.231 6.784-13.067 14.029-13.877 4.636-.514 9.073.892 12.51 3.966 3.393 3.034 5.338 7.382 5.338 11.93 0 5.914-3.246 11.323-8.472 14.116z"/></g></g></svg>