<svg id="Layer_1" enable-background="new 0 0 512 512" height="512" viewBox="0 0 512 512" width="512" xmlns="http://www.w3.org/2000/svg"><g><g><g><g><g><g id="XMLID_788_"><g id="XMLID_789_"><g id="XMLID_790_"><g id="XMLID_791_"><g id="XMLID_792_"><g id="XMLID_793_"><g id="XMLID_794_"><g id="XMLID_795_"><g id="XMLID_796_"><g id="XMLID_797_"><g id="XMLID_798_"><g id="XMLID_799_"><g id="XMLID_800_"><g id="XMLID_801_"><g id="XMLID_802_"><circle cx="256" cy="256" fill="#6c2ac4" r="256"/></g></g></g></g></g></g></g></g></g></g></g></g></g></g></g></g></g></g></g><path d="m510.799 280.813-208.185-208.185-237.372 261.108s133.4 134.045 177.526 177.927c4.382.223 8.794.337 13.232.337 133.013 0 242.319-101.447 254.799-231.187z" fill="#3c1784"/><g><path d="m302.614 330.57h-210.636v-257.942h69.004l36.314 27.93 36.315-27.93h69.003z" fill="#ffb531"/><path d="m302.612 72.63v257.943h-105.314v-230.016l36.311-27.927z" fill="#f99108"/><g><path d="m181.366 329.783-72.935-54.827c-16.095-12.099-38.951-8.864-51.056 7.227-12.112 16.1-8.874 38.972 7.232 51.077l62.162 46.72c21.271 16.002 47.167 24.655 73.786 24.655h194.653v-73.111z" fill="#ffd194"/><path d="m395.207 337.262v-38.823l-35.874-.298c-12.891-.107-25.586-3.158-37.118-8.92-6.462-3.229-13.588-4.91-20.812-4.91h-105.38c-14.622 0-26.476 11.854-26.476 26.476 0 14.622 11.854 26.476 26.476 26.476h199.184z" fill="#ffe9c5"/><path d="m339.974 267.636h96.087v156.946h-96.087z" fill="#57e5a8"/><path d="m339.976 337.26h96.089v87.321h-96.089z" fill="#2dba7a"/></g><path d="m160.982 72.628h72.629v97.44h-72.629z" fill="#fff"/><path d="m197.298 72.63h36.311v97.44h-36.311z" fill="#c0fffa"/></g></g></svg>